<svg xmlns="http://www.w3.org/2000/svg" width="360" height="420" viewBox="0 0 95.24999780836565 111.1250031400611"><g style="stroke-width:.2106810361;stroke-miterlimit:4;stroke-dasharray:none"><path d="M-379.578 1039.52c-.04-1.76.246-3.536.926-5.16a11.232 11.232 0 0 1 5.768-5.874c-.432.829-.75 1.718-.94 2.634-.495 2.394-.113 4.893-.495 7.309a11.768 11.768 0 0 1-3.87 6.978 14.613 14.613 0 0 1-1.389-5.887z" style="fill:#fc0;stroke:#d49600;stroke-width:.2106810361;stroke-linecap:butt;stroke-linejoin:round;stroke-miterlimit:4;stroke-dasharray:none;stroke-opacity:1" transform="matrix(1.25584 0 0 1.25586 481.283 -1266.313)"/><path d="M-372.884 1028.486a27.184 27.184 0 0 0-3.982 7.727 27.192 27.192 0 0 0-1.323 9.194" style="fill:none;stroke:#d49600;stroke-width:.2106810361;stroke-linecap:butt;stroke-linejoin:round;stroke-miterlimit:4;stroke-dasharray:none;stroke-opacity:1" transform="matrix(1.25584 0 0 1.25586 481.283 -1266.313)"/><path d="M-378.652 1043.985c.405-2.263 1.843-4.201 3.407-5.887a34.57 34.57 0 0 1 2.778-2.679 17.244 17.244 0 0 0-1.257 5.556c-.1 1.767.072 3.562-.298 5.292a8.654 8.654 0 0 1-2.414 4.366c-1.782-1.661-2.645-4.25-2.216-6.648z" style="fill:#fc0;stroke:#d49600;stroke-width:.2106810361;stroke-linecap:butt;stroke-linejoin:round;stroke-miterlimit:4;stroke-dasharray:none;stroke-opacity:1" transform="matrix(1.25584 0 0 1.25586 481.283 -1266.313)"/><path d="M-376.436 1050.633c.184-1.348.382-2.693.595-4.035.23-1.453.478-2.904.827-4.333a31.391 31.391 0 0 1 2.547-6.846" style="fill:none;stroke:#d49600;stroke-width:.2106810361;stroke-linecap:butt;stroke-linejoin:round;stroke-miterlimit:4;stroke-dasharray:none;stroke-opacity:1" transform="matrix(1.25584 0 0 1.25586 481.283 -1266.313)"/><path d="M-376.68 1046.64c-.292-1.996-1.008-3.915-1.94-5.705a24.813 24.813 0 0 0-2.975-4.458 17.206 17.206 0 0 0-.697 5.086c.036 2.559.653 5.11 1.809 7.393a16.645 16.645 0 0 0 3.187 4.355c.73-2.132.943-4.44.616-6.67z" style="fill:#fc0;stroke:#d49600;stroke-width:.2106810361;stroke-linecap:butt;stroke-linejoin:round;stroke-miterlimit:4;stroke-dasharray:none;stroke-opacity:1" transform="matrix(1.25584 0 0 1.25586 481.283 -1266.313)"/><path d="M-381.595 1036.477c.287 1.81.595 3.615.924 5.417.371 2.04.77 4.078 1.346 6.07a35.197 35.197 0 0 0 2.03 5.347" style="fill:none;stroke:#d49600;stroke-width:.2106810361;stroke-linecap:butt;stroke-linejoin:round;stroke-miterlimit:4;stroke-dasharray:none;stroke-opacity:1" transform="matrix(1.25584 0 0 1.25586 481.283 -1266.313)"/><path d="M-377.685 1050.266c.567-1.158 1.376-2.181 2.245-3.134a28.204 28.204 0 0 1 2.62-2.526 18.48 18.48 0 0 0-1.043 4.571c-.165 1.701-.093 3.423-.342 5.114a13.671 13.671 0 0 1-2.264 5.75 9.059 9.059 0 0 1-2.065-4.706 9.059 9.059 0 0 1 .849-5.07z" style="fill:#fc0;stroke:#d49600;stroke-width:.2106810361;stroke-linecap:butt;stroke-linejoin:round;stroke-miterlimit:4;stroke-dasharray:none;stroke-opacity:1" transform="matrix(1.25584 0 0 1.25586 481.283 -1266.313)"/><path d="M-372.82 1044.606a40.82 40.82 0 0 0-1.638 3.976 36.882 36.882 0 0 0-1.17 4.022 33.663 33.663 0 0 0-.841 7.437" style="fill:none;stroke:#d49600;stroke-width:.2106810361;stroke-linecap:butt;stroke-linejoin:round;stroke-miterlimit:4;stroke-dasharray:none;stroke-opacity:1" transform="matrix(1.25584 0 0 1.25586 481.283 -1266.313)"/><path d="M-376.8 1055.428c-.47-1.978-1.483-3.789-2.646-5.457a31.568 31.568 0 0 0-3.571-4.266 29.153 29.153 0 0 0 0 3.605c.114 1.847.406 3.69.959 5.457a19.145 19.145 0 0 0 4.597 7.673 11.042 11.042 0 0 0 .661-7.012z" style="fill:#fc0;stroke:#d49600;stroke-width:.2106810361;stroke-linecap:butt;stroke-linejoin:round;stroke-miterlimit:4;stroke-dasharray:none;stroke-opacity:1" transform="matrix(1.25584 0 0 1.25586 481.283 -1266.313)"/><path d="M-383.017 1045.705a72.478 72.478 0 0 0 1.653 6.217c.691 2.2 1.486 4.365 2.315 6.516.516 1.339 1.046 2.673 1.588 4.002" style="fill:none;stroke:#d49600;stroke-width:.2106810361;stroke-linecap:butt;stroke-linejoin:round;stroke-miterlimit:4;stroke-dasharray:none;stroke-opacity:1" transform="matrix(1.25584 0 0 1.25586 481.283 -1266.313)"/><path d="M-373.36 1063.002c.309-1.696.208-3.436.231-5.16a35.69 35.69 0 0 1 .43-5.06 18.995 18.995 0 0 0-3.24 3.87c-1.043 1.649-1.84 3.508-1.92 5.457a8.023 8.023 0 0 0 2.217 5.82 10.877 10.877 0 0 0 2.282-4.927z" style="fill:#fc0;stroke:#d49600;stroke-width:.2106810361;stroke-linecap:butt;stroke-linejoin:round;stroke-miterlimit:4;stroke-dasharray:none;stroke-opacity:1" transform="matrix(1.25584 0 0 1.25586 481.283 -1266.313)"/><path d="M-372.699 1052.782a16.749 16.749 0 0 0-1.819 4.73c-.35 1.607-.462 3.255-.595 4.895a186.613 186.613 0 0 1-.53 5.523" style="fill:none;stroke:#d49600;stroke-width:.2106810361;stroke-linecap:butt;stroke-linejoin:round;stroke-miterlimit:4;stroke-dasharray:none;stroke-opacity:1" transform="matrix(1.25584 0 0 1.25586 481.283 -1266.313)"/><path d="M-378.817 1059.43c1.321 1.61 2.487 3.381 3.142 5.358a11.91 11.91 0 0 1 .297 6.383 27.83 27.83 0 0 1-5.027-5.854c-1.049-1.636-1.932-3.4-2.38-5.292a12.578 12.578 0 0 1-.2-4.762 30.14 30.14 0 0 1 4.168 4.167z" style="fill:#fc0;stroke:#d49600;stroke-width:.2106810361;stroke-linecap:butt;stroke-linejoin:round;stroke-miterlimit:4;stroke-dasharray:none;stroke-opacity:1" transform="matrix(1.25584 0 0 1.25586 481.283 -1266.313)"/><path d="M-382.984 1055.263a54.478 54.478 0 0 0 2.216 5.59c.855 1.852 1.815 3.656 2.778 5.456.867 1.622 1.738 3.243 2.612 4.862" style="fill:none;stroke:#d49600;stroke-width:.2106810361;stroke-linecap:butt;stroke-linejoin:round;stroke-miterlimit:4;stroke-dasharray:none;stroke-opacity:1" transform="matrix(1.25584 0 0 1.25586 481.283 -1266.313)"/><path d="M-375.642 1068.591c.12-1.894.694-3.749 1.587-5.424a15.133 15.133 0 0 1 2.68-3.605 19.138 19.138 0 0 0-.265 4.895c.148 1.989.608 3.96.529 5.953a11.12 11.12 0 0 1-2.15 6.119 12.06 12.06 0 0 1-2.381-7.938z" style="fill:#fc0;stroke:#d49600;stroke-width:.2106810361;stroke-linecap:butt;stroke-linejoin:round;stroke-miterlimit:4;stroke-dasharray:none;stroke-opacity:1" transform="matrix(1.25584 0 0 1.25586 481.283 -1266.313)"/><path d="M-371.376 1059.562a12.827 12.827 0 0 0-1.389 4.167c-.292 1.944-.133 3.922-.1 5.887.041 2.31-.091 4.623-.396 6.913" style="fill:none;stroke:#d49600;stroke-width:.2106810361;stroke-linecap:butt;stroke-linejoin:round;stroke-miterlimit:4;stroke-dasharray:none;stroke-opacity:1" transform="matrix(1.25584 0 0 1.25586 481.283 -1266.313)"/><path d="M-377.263 1075.57c-1.459-1.688-2.765-3.551-3.505-5.656a12.221 12.221 0 0 1-.662-4.895c1.42.874 2.77 1.86 4.035 2.944 1.585 1.359 3.05 2.892 4.101 4.696a13.36 13.36 0 0 1 1.72 8.136 33.681 33.681 0 0 1-5.689-5.225z" style="fill:#fc0;stroke:#d49600;stroke-width:.2106810361;stroke-linecap:butt;stroke-linejoin:round;stroke-miterlimit:4;stroke-dasharray:none;stroke-opacity:1" transform="matrix(1.25584 0 0 1.25586 481.283 -1266.313)"/><path d="M-381.43 1065.02a30.344 30.344 0 0 0 2.381 4.861c1.085 1.79 2.35 3.46 3.572 5.16a126.229 126.229 0 0 1 3.903 5.754" style="fill:none;stroke:#d49600;stroke-width:.2106810361;stroke-linecap:butt;stroke-linejoin:round;stroke-miterlimit:4;stroke-dasharray:none;stroke-opacity:1" transform="matrix(1.25584 0 0 1.25586 481.283 -1266.313)"/><path d="M-367.804 1077.256c-.297-1.868-.964-3.654-1.422-5.49a24.9 24.9 0 0 1-.695-4.53 28.542 28.542 0 0 0-1.918 3.935c-.582 1.47-1.045 3.015-1.058 4.597a8.372 8.372 0 0 0 1.262 4.475 8.372 8.372 0 0 0 3.467 3.099c.56-1.97.686-4.063.364-6.086z" style="fill:#fc0;stroke:#d49600;stroke-width:.2106810361;stroke-linecap:butt;stroke-linejoin:round;stroke-miterlimit:4;stroke-dasharray:none;stroke-opacity:1" transform="matrix(1.25584 0 0 1.25586 481.283 -1266.313)"/><path d="M-369.92 1067.235a15.518 15.518 0 0 0-.53 4.961c.103 1.847.535 3.657.96 5.457a919.76 919.76 0 0 1 1.322 5.689" style="fill:none;stroke:#d49600;stroke-width:.2106810361;stroke-linecap:butt;stroke-linejoin:round;stroke-miterlimit:4;stroke-dasharray:none;stroke-opacity:1" transform="matrix(1.25584 0 0 1.25586 481.283 -1266.313)"/><path d="M-370.384 1080.001c-1.76-1.295-3.83-2.085-5.854-2.91-.819-.334-1.634-.676-2.447-1.025a11.468 11.468 0 0 0 1.092 3.406c1.05 2.084 2.726 3.81 4.63 5.16a19.387 19.387 0 0 0 7.342 3.175 12.213 12.213 0 0 0-4.763-7.806z" style="fill:#fc0;stroke:#d49600;stroke-width:.2106810361;stroke-linecap:butt;stroke-linejoin:round;stroke-miterlimit:4;stroke-dasharray:none;stroke-opacity:1" transform="matrix(1.25584 0 0 1.25586 481.283 -1266.313)"/><path d="M-378.685 1076.066a31.336 31.336 0 0 0 2.381 2.844c1.695 1.796 3.595 3.385 5.524 4.928a171.423 171.423 0 0 0 5.159 3.969" style="fill:none;stroke:#d49600;stroke-width:.2106810361;stroke-linecap:butt;stroke-linejoin:round;stroke-miterlimit:4;stroke-dasharray:none;stroke-opacity:1" transform="matrix(1.25584 0 0 1.25586 481.283 -1266.313)"/><path d="M-367.209 1085.624c-.991-1.794-1.294-3.908-1.157-5.953a15.007 15.007 0 0 1 1.19-4.928 19.407 19.407 0 0 0 2.051 4.696c1.263 2.087 2.941 3.98 3.638 6.317a8.296 8.296 0 0 1 .165 4.068c-2.454-.43-4.68-2.02-5.887-4.2z" style="fill:#fc0;stroke:#d49600;stroke-width:.2106810361;stroke-linecap:butt;stroke-linejoin:round;stroke-miterlimit:4;stroke-dasharray:none;stroke-opacity:1" transform="matrix(1.25584 0 0 1.25586 481.283 -1266.313)"/><path d="M-367.176 1074.743a15.928 15.928 0 0 0 .794 5.16c.654 1.988 1.693 3.825 2.712 5.655.79 1.418 1.573 2.84 2.348 4.266" style="fill:none;stroke:#d49600;stroke-width:.2106810361;stroke-linecap:butt;stroke-linejoin:round;stroke-miterlimit:4;stroke-dasharray:none;stroke-opacity:1" transform="matrix(1.25584 0 0 1.25586 481.283 -1266.313)"/><path d="M-364.133 1091.94c-1.976-.246-3.917-.856-5.622-1.885a12.584 12.584 0 0 1-4.399-4.497 20.027 20.027 0 0 1 5.06.099c1.783.263 3.527.767 5.193 1.455a24.625 24.625 0 0 1 6.78 4.2 16.672 16.672 0 0 1-7.012.629z" style="fill:#fc0;stroke:#d49600;stroke-width:.2106810361;stroke-linecap:butt;stroke-linejoin:round;stroke-miterlimit:4;stroke-dasharray:none;stroke-opacity:1" transform="matrix(1.25584 0 0 1.25586 481.283 -1266.313)"/><path d="M-374.154 1085.558a95.176 95.176 0 0 0 4.895 2.58c1.737.851 3.506 1.653 5.358 2.215 2.192.666 4.488.991 6.78.96" style="fill:none;stroke:#d49600;stroke-width:.2106810361;stroke-linecap:butt;stroke-linejoin:round;stroke-miterlimit:4;stroke-dasharray:none;stroke-opacity:1" transform="matrix(1.25584 0 0 1.25586 481.283 -1266.313)"/><path d="M-360.73 1083.03c1.13 1.053 2.207 2.183 3.508 3.016.617.396 1.283.723 1.847 1.193.48.4.876.898 1.17 1.45.526.99.714 2.157.526 3.262a15.722 15.722 0 0 1-2.98-.242c-1.152-.205-2.32-.56-3.207-1.323-.596-.511-1.038-1.185-1.35-1.905-.31-.72-.497-1.49-.635-2.262-.177-.988-.278-1.99-.463-2.977-.061-.328-.132-.654-.182-.984a7.932 7.932 0 0 1-.082-.842c.633.518 1.25 1.056 1.848 1.614z" style="fill:#fc0;stroke:#d49600;stroke-width:.2106810361;stroke-linecap:butt;stroke-linejoin:round;stroke-miterlimit:4;stroke-dasharray:none;stroke-opacity:1" transform="matrix(1.25584 0 0 1.25586 481.283 -1266.313)"/><path d="M-353.68 1091.951a9.499 9.499 0 0 0-2.07-2.724c-.874-.798-1.89-1.425-2.805-2.175a13.31 13.31 0 0 1-4.023-5.636" style="fill:none;stroke:#d49600;stroke-width:.2106810361;stroke-linecap:butt;stroke-linejoin:round;stroke-miterlimit:4;stroke-dasharray:none;stroke-opacity:1" transform="matrix(1.25584 0 0 1.25586 481.283 -1266.313)"/><path d="M-352.171 1094.84c-1.225.697-2.637 1.034-4.046 1.075-1.475.044-2.942-.226-4.373-.584-1.45-.363-2.887-.822-4.21-1.52a12.624 12.624 0 0 1-2.574-1.804c.283.109.59.154.893.132.601-.044 1.148-.344 1.705-.573 1.257-.518 2.625-.688 3.975-.842 1.865-.213 3.752-.405 5.613-.164.72.093 1.436.253 2.102.543.665.29 1.28.714 1.733 1.281.314.392.546.849.679 1.333a7.442 7.442 0 0 1-1.497 1.123z" style="fill:#fc0;stroke:#d49600;stroke-width:.2106810361;stroke-linecap:round;stroke-linejoin:round;stroke-miterlimit:4;stroke-dasharray:none;stroke-opacity:1" transform="matrix(1.25584 0 0 1.25586 481.283 -1266.313)"/><path d="M-367.374 1092.007c1.246.449 2.52.817 3.814 1.102 1.976.436 3.991.676 6.01.819 1.69.119 3.388.17 5.075.023.603-.053 1.204-.13 1.8-.234" style="fill:none;stroke:#d49600;stroke-width:.2106810361;stroke-linecap:round;stroke-linejoin:round;stroke-miterlimit:4;stroke-dasharray:none;stroke-opacity:1" transform="matrix(1.25584 0 0 1.25586 481.283 -1266.313)"/></g><g style="stroke-width:.2106810361;stroke-miterlimit:4;stroke-dasharray:none"><path d="M-379.578 1039.52c-.04-1.76.246-3.536.926-5.16a11.232 11.232 0 0 1 5.768-5.874c-.432.829-.75 1.718-.94 2.634-.495 2.394-.113 4.893-.495 7.309a11.768 11.768 0 0 1-3.87 6.978 14.613 14.613 0 0 1-1.389-5.887z" style="fill:#fc0;stroke:#d49600;stroke-width:.2106810361;stroke-linecap:butt;stroke-linejoin:round;stroke-miterlimit:4;stroke-dasharray:none;stroke-opacity:1" transform="matrix(-1.25584 0 0 1.25586 -386.033 -1266.313)"/><path d="M-372.884 1028.486a27.184 27.184 0 0 0-3.982 7.727 27.192 27.192 0 0 0-1.323 9.194" style="fill:none;stroke:#d49600;stroke-width:.2106810361;stroke-linecap:butt;stroke-linejoin:round;stroke-miterlimit:4;stroke-dasharray:none;stroke-opacity:1" transform="matrix(-1.25584 0 0 1.25586 -386.033 -1266.313)"/><path d="M-378.652 1043.985c.405-2.263 1.843-4.201 3.407-5.887a34.57 34.57 0 0 1 2.778-2.679 17.244 17.244 0 0 0-1.257 5.556c-.1 1.767.072 3.562-.298 5.292a8.654 8.654 0 0 1-2.414 4.366c-1.782-1.661-2.645-4.25-2.216-6.648z" style="fill:#fc0;stroke:#d49600;stroke-width:.2106810361;stroke-linecap:butt;stroke-linejoin:round;stroke-miterlimit:4;stroke-dasharray:none;stroke-opacity:1" transform="matrix(-1.25584 0 0 1.25586 -386.033 -1266.313)"/><path d="M-376.436 1050.633c.184-1.348.382-2.693.595-4.035.23-1.453.478-2.904.827-4.333a31.391 31.391 0 0 1 2.547-6.846" style="fill:none;stroke:#d49600;stroke-width:.2106810361;stroke-linecap:butt;stroke-linejoin:round;stroke-miterlimit:4;stroke-dasharray:none;stroke-opacity:1" transform="matrix(-1.25584 0 0 1.25586 -386.033 -1266.313)"/><path d="M-376.68 1046.64c-.292-1.996-1.008-3.915-1.94-5.705a24.813 24.813 0 0 0-2.975-4.458 17.206 17.206 0 0 0-.697 5.086c.036 2.559.653 5.11 1.809 7.393a16.645 16.645 0 0 0 3.187 4.355c.73-2.132.943-4.44.616-6.67z" style="fill:#fc0;stroke:#d49600;stroke-width:.2106810361;stroke-linecap:butt;stroke-linejoin:round;stroke-miterlimit:4;stroke-dasharray:none;stroke-opacity:1" transform="matrix(-1.25584 0 0 1.25586 -386.033 -1266.313)"/><path d="M-381.595 1036.477c.287 1.81.595 3.615.924 5.417.371 2.04.77 4.078 1.346 6.07a35.197 35.197 0 0 0 2.03 5.347" style="fill:none;stroke:#d49600;stroke-width:.2106810361;stroke-linecap:butt;stroke-linejoin:round;stroke-miterlimit:4;stroke-dasharray:none;stroke-opacity:1" transform="matrix(-1.25584 0 0 1.25586 -386.033 -1266.313)"/><path d="M-377.685 1050.266c.567-1.158 1.376-2.181 2.245-3.134a28.204 28.204 0 0 1 2.62-2.526 18.48 18.48 0 0 0-1.043 4.571c-.165 1.701-.093 3.423-.342 5.114a13.671 13.671 0 0 1-2.264 5.75 9.059 9.059 0 0 1-2.065-4.706 9.059 9.059 0 0 1 .849-5.07z" style="fill:#fc0;stroke:#d49600;stroke-width:.2106810361;stroke-linecap:butt;stroke-linejoin:round;stroke-miterlimit:4;stroke-dasharray:none;stroke-opacity:1" transform="matrix(-1.25584 0 0 1.25586 -386.033 -1266.313)"/><path d="M-372.82 1044.606a40.82 40.82 0 0 0-1.638 3.976 36.882 36.882 0 0 0-1.17 4.022 33.663 33.663 0 0 0-.841 7.437" style="fill:none;stroke:#d49600;stroke-width:.2106810361;stroke-linecap:butt;stroke-linejoin:round;stroke-miterlimit:4;stroke-dasharray:none;stroke-opacity:1" transform="matrix(-1.25584 0 0 1.25586 -386.033 -1266.313)"/><path d="M-376.8 1055.428c-.47-1.978-1.483-3.789-2.646-5.457a31.568 31.568 0 0 0-3.571-4.266 29.153 29.153 0 0 0 0 3.605c.114 1.847.406 3.69.959 5.457a19.145 19.145 0 0 0 4.597 7.673 11.042 11.042 0 0 0 .661-7.012z" style="fill:#fc0;stroke:#d49600;stroke-width:.2106810361;stroke-linecap:butt;stroke-linejoin:round;stroke-miterlimit:4;stroke-dasharray:none;stroke-opacity:1" transform="matrix(-1.25584 0 0 1.25586 -386.033 -1266.313)"/><path d="M-383.017 1045.705a72.478 72.478 0 0 0 1.653 6.217c.691 2.2 1.486 4.365 2.315 6.516.516 1.339 1.046 2.673 1.588 4.002" style="fill:none;stroke:#d49600;stroke-width:.2106810361;stroke-linecap:butt;stroke-linejoin:round;stroke-miterlimit:4;stroke-dasharray:none;stroke-opacity:1" transform="matrix(-1.25584 0 0 1.25586 -386.033 -1266.313)"/><path d="M-373.36 1063.002c.309-1.696.208-3.436.231-5.16a35.69 35.69 0 0 1 .43-5.06 18.995 18.995 0 0 0-3.24 3.87c-1.043 1.649-1.84 3.508-1.92 5.457a8.023 8.023 0 0 0 2.217 5.82 10.877 10.877 0 0 0 2.282-4.927z" style="fill:#fc0;stroke:#d49600;stroke-width:.2106810361;stroke-linecap:butt;stroke-linejoin:round;stroke-miterlimit:4;stroke-dasharray:none;stroke-opacity:1" transform="matrix(-1.25584 0 0 1.25586 -386.033 -1266.313)"/><path d="M-372.699 1052.782a16.749 16.749 0 0 0-1.819 4.73c-.35 1.607-.462 3.255-.595 4.895a186.613 186.613 0 0 1-.53 5.523" style="fill:none;stroke:#d49600;stroke-width:.2106810361;stroke-linecap:butt;stroke-linejoin:round;stroke-miterlimit:4;stroke-dasharray:none;stroke-opacity:1" transform="matrix(-1.25584 0 0 1.25586 -386.033 -1266.313)"/><path d="M-378.817 1059.43c1.321 1.61 2.487 3.381 3.142 5.358a11.91 11.91 0 0 1 .297 6.383 27.83 27.83 0 0 1-5.027-5.854c-1.049-1.636-1.932-3.4-2.38-5.292a12.578 12.578 0 0 1-.2-4.762 30.14 30.14 0 0 1 4.168 4.167z" style="fill:#fc0;stroke:#d49600;stroke-width:.2106810361;stroke-linecap:butt;stroke-linejoin:round;stroke-miterlimit:4;stroke-dasharray:none;stroke-opacity:1" transform="matrix(-1.25584 0 0 1.25586 -386.033 -1266.313)"/><path d="M-382.984 1055.263a54.478 54.478 0 0 0 2.216 5.59c.855 1.852 1.815 3.656 2.778 5.456.867 1.622 1.738 3.243 2.612 4.862" style="fill:none;stroke:#d49600;stroke-width:.2106810361;stroke-linecap:butt;stroke-linejoin:round;stroke-miterlimit:4;stroke-dasharray:none;stroke-opacity:1" transform="matrix(-1.25584 0 0 1.25586 -386.033 -1266.313)"/><path d="M-375.642 1068.591c.12-1.894.694-3.749 1.587-5.424a15.133 15.133 0 0 1 2.68-3.605 19.138 19.138 0 0 0-.265 4.895c.148 1.989.608 3.96.529 5.953a11.12 11.12 0 0 1-2.15 6.119 12.06 12.06 0 0 1-2.381-7.938z" style="fill:#fc0;stroke:#d49600;stroke-width:.2106810361;stroke-linecap:butt;stroke-linejoin:round;stroke-miterlimit:4;stroke-dasharray:none;stroke-opacity:1" transform="matrix(-1.25584 0 0 1.25586 -386.033 -1266.313)"/><path d="M-371.376 1059.562a12.827 12.827 0 0 0-1.389 4.167c-.292 1.944-.133 3.922-.1 5.887.041 2.31-.091 4.623-.396 6.913" style="fill:none;stroke:#d49600;stroke-width:.2106810361;stroke-linecap:butt;stroke-linejoin:round;stroke-miterlimit:4;stroke-dasharray:none;stroke-opacity:1" transform="matrix(-1.25584 0 0 1.25586 -386.033 -1266.313)"/><path d="M-377.263 1075.57c-1.459-1.688-2.765-3.551-3.505-5.656a12.221 12.221 0 0 1-.662-4.895c1.42.874 2.77 1.86 4.035 2.944 1.585 1.359 3.05 2.892 4.101 4.696a13.36 13.36 0 0 1 1.72 8.136 33.681 33.681 0 0 1-5.689-5.225z" style="fill:#fc0;stroke:#d49600;stroke-width:.2106810361;stroke-linecap:butt;stroke-linejoin:round;stroke-miterlimit:4;stroke-dasharray:none;stroke-opacity:1" transform="matrix(-1.25584 0 0 1.25586 -386.033 -1266.313)"/><path d="M-381.43 1065.02a30.344 30.344 0 0 0 2.381 4.861c1.085 1.79 2.35 3.46 3.572 5.16a126.229 126.229 0 0 1 3.903 5.754" style="fill:none;stroke:#d49600;stroke-width:.2106810361;stroke-linecap:butt;stroke-linejoin:round;stroke-miterlimit:4;stroke-dasharray:none;stroke-opacity:1" transform="matrix(-1.25584 0 0 1.25586 -386.033 -1266.313)"/><path d="M-367.804 1077.256c-.297-1.868-.964-3.654-1.422-5.49a24.9 24.9 0 0 1-.695-4.53 28.542 28.542 0 0 0-1.918 3.935c-.582 1.47-1.045 3.015-1.058 4.597a8.372 8.372 0 0 0 1.262 4.475 8.372 8.372 0 0 0 3.467 3.099c.56-1.97.686-4.063.364-6.086z" style="fill:#fc0;stroke:#d49600;stroke-width:.2106810361;stroke-linecap:butt;stroke-linejoin:round;stroke-miterlimit:4;stroke-dasharray:none;stroke-opacity:1" transform="matrix(-1.25584 0 0 1.25586 -386.033 -1266.313)"/><path d="M-369.92 1067.235a15.518 15.518 0 0 0-.53 4.961c.103 1.847.535 3.657.96 5.457a919.76 919.76 0 0 1 1.322 5.689" style="fill:none;stroke:#d49600;stroke-width:.2106810361;stroke-linecap:butt;stroke-linejoin:round;stroke-miterlimit:4;stroke-dasharray:none;stroke-opacity:1" transform="matrix(-1.25584 0 0 1.25586 -386.033 -1266.313)"/><path d="M-370.384 1080.001c-1.76-1.295-3.83-2.085-5.854-2.91-.819-.334-1.634-.676-2.447-1.025a11.468 11.468 0 0 0 1.092 3.406c1.05 2.084 2.726 3.81 4.63 5.16a19.387 19.387 0 0 0 7.342 3.175 12.213 12.213 0 0 0-4.763-7.806z" style="fill:#fc0;stroke:#d49600;stroke-width:.2106810361;stroke-linecap:butt;stroke-linejoin:round;stroke-miterlimit:4;stroke-dasharray:none;stroke-opacity:1" transform="matrix(-1.25584 0 0 1.25586 -386.033 -1266.313)"/><path d="M-378.685 1076.066a31.336 31.336 0 0 0 2.381 2.844c1.695 1.796 3.595 3.385 5.524 4.928a171.423 171.423 0 0 0 5.159 3.969" style="fill:none;stroke:#d49600;stroke-width:.2106810361;stroke-linecap:butt;stroke-linejoin:round;stroke-miterlimit:4;stroke-dasharray:none;stroke-opacity:1" transform="matrix(-1.25584 0 0 1.25586 -386.033 -1266.313)"/><path d="M-367.209 1085.624c-.991-1.794-1.294-3.908-1.157-5.953a15.007 15.007 0 0 1 1.19-4.928 19.407 19.407 0 0 0 2.051 4.696c1.263 2.087 2.941 3.98 3.638 6.317a8.296 8.296 0 0 1 .165 4.068c-2.454-.43-4.68-2.02-5.887-4.2z" style="fill:#fc0;stroke:#d49600;stroke-width:.2106810361;stroke-linecap:butt;stroke-linejoin:round;stroke-miterlimit:4;stroke-dasharray:none;stroke-opacity:1" transform="matrix(-1.25584 0 0 1.25586 -386.033 -1266.313)"/><path d="M-367.176 1074.743a15.928 15.928 0 0 0 .794 5.16c.654 1.988 1.693 3.825 2.712 5.655.79 1.418 1.573 2.84 2.348 4.266" style="fill:none;stroke:#d49600;stroke-width:.2106810361;stroke-linecap:butt;stroke-linejoin:round;stroke-miterlimit:4;stroke-dasharray:none;stroke-opacity:1" transform="matrix(-1.25584 0 0 1.25586 -386.033 -1266.313)"/><path d="M-364.133 1091.94c-1.976-.246-3.917-.856-5.622-1.885a12.584 12.584 0 0 1-4.399-4.497 20.027 20.027 0 0 1 5.06.099c1.783.263 3.527.767 5.193 1.455a24.625 24.625 0 0 1 6.78 4.2 16.672 16.672 0 0 1-7.012.629z" style="fill:#fc0;stroke:#d49600;stroke-width:.2106810361;stroke-linecap:butt;stroke-linejoin:round;stroke-miterlimit:4;stroke-dasharray:none;stroke-opacity:1" transform="matrix(-1.25584 0 0 1.25586 -386.033 -1266.313)"/><path d="M-374.154 1085.558a95.176 95.176 0 0 0 4.895 2.58c1.737.851 3.506 1.653 5.358 2.215 2.192.666 4.488.991 6.78.96" style="fill:none;stroke:#d49600;stroke-width:.2106810361;stroke-linecap:butt;stroke-linejoin:round;stroke-miterlimit:4;stroke-dasharray:none;stroke-opacity:1" transform="matrix(-1.25584 0 0 1.25586 -386.033 -1266.313)"/><path d="M-360.73 1083.03c1.13 1.053 2.207 2.183 3.508 3.016.617.396 1.283.723 1.847 1.193.48.4.876.898 1.17 1.45.526.99.714 2.157.526 3.262a15.722 15.722 0 0 1-2.98-.242c-1.152-.205-2.32-.56-3.207-1.323-.596-.511-1.038-1.185-1.35-1.905-.31-.72-.497-1.49-.635-2.262-.177-.988-.278-1.99-.463-2.977-.061-.328-.132-.654-.182-.984a7.932 7.932 0 0 1-.082-.842c.633.518 1.25 1.056 1.848 1.614z" style="fill:#fc0;stroke:#d49600;stroke-width:.2106810361;stroke-linecap:butt;stroke-linejoin:round;stroke-miterlimit:4;stroke-dasharray:none;stroke-opacity:1" transform="matrix(-1.25584 0 0 1.25586 -386.033 -1266.313)"/><path d="M-353.68 1091.951a9.499 9.499 0 0 0-2.07-2.724c-.874-.798-1.89-1.425-2.805-2.175a13.31 13.31 0 0 1-4.023-5.636" style="fill:none;stroke:#d49600;stroke-width:.2106810361;stroke-linecap:butt;stroke-linejoin:round;stroke-miterlimit:4;stroke-dasharray:none;stroke-opacity:1" transform="matrix(-1.25584 0 0 1.25586 -386.033 -1266.313)"/><path d="M-352.171 1094.84c-1.225.697-2.637 1.034-4.046 1.075-1.475.044-2.942-.226-4.373-.584-1.45-.363-2.887-.822-4.21-1.52a12.624 12.624 0 0 1-2.574-1.804c.283.109.59.154.893.132.601-.044 1.148-.344 1.705-.573 1.257-.518 2.625-.688 3.975-.842 1.865-.213 3.752-.405 5.613-.164.72.093 1.436.253 2.102.543.665.29 1.28.714 1.733 1.281.314.392.546.849.679 1.333a7.442 7.442 0 0 1-1.497 1.123z" style="fill:#fc0;stroke:#d49600;stroke-width:.2106810361;stroke-linecap:round;stroke-linejoin:round;stroke-miterlimit:4;stroke-dasharray:none;stroke-opacity:1" transform="matrix(-1.25584 0 0 1.25586 -386.033 -1266.313)"/><path d="M-367.374 1092.007c1.246.449 2.52.817 3.814 1.102 1.976.436 3.991.676 6.01.819 1.69.119 3.388.17 5.075.023.603-.053 1.204-.13 1.8-.234" style="fill:none;stroke:#d49600;stroke-width:.2106810361;stroke-linecap:round;stroke-linejoin:round;stroke-miterlimit:4;stroke-dasharray:none;stroke-opacity:1" transform="matrix(-1.25584 0 0 1.25586 -386.033 -1266.313)"/></g><g style="fill:#e6e6e6;fill-opacity:1;stroke:#999;stroke-width:.2106810361;stroke-miterlimit:4;stroke-dasharray:none;stroke-opacity:1"><g style="fill:#e6e6e6;fill-opacity:1;stroke:#999;stroke-width:.2106810361;stroke-miterlimit:4;stroke-dasharray:none;stroke-opacity:1" transform="matrix(1.25106 -.10946 .10945 1.25108 620.354 -1341.75)"><path d="M-557.338 1096.569h1.885v13.892h-1.885z" style="opacity:1;vector-effect:none;fill:#e6e6e6;fill-opacity:1;stroke:#999;stroke-width:.2106810361;stroke-linecap:round;stroke-linejoin:round;stroke-miterlimit:4;stroke-dasharray:none;stroke-dashoffset:0;stroke-opacity:1"/><path d="m-558.213 1035.158.875 59.683.943 1.811.942-1.811.875-59.683M-557.338 1096.107l1.885 1.089M-557.338 1110.042l1.885 1.088M-557.338 1108.184l1.885 1.088M-557.338 1107.255l1.885 1.088M-557.338 1106.326l1.885 1.088M-557.338 1105.397l1.885 1.088M-557.338 1104.468l1.885 1.088M-557.338 1102.61l1.885 1.088M-557.338 1101.681l1.885 1.088M-557.338 1100.752l1.885 1.088M-557.338 1099.823l1.885 1.088M-557.338 1098.894l1.885 1.089M-557.338 1097.965l1.885 1.089M-557.338 1097.036l1.885 1.089M-557.338 1103.539l1.885 1.088" style="opacity:1;fill:#e6e6e6;fill-opacity:1;stroke:#999;stroke-width:.2106810361;stroke-linecap:butt;stroke-linejoin:miter;stroke-miterlimit:4;stroke-dasharray:none;stroke-opacity:1"/><circle cx="-556.3953857421875" cy="1110.585693359375" r="1.422135472297668" style="opacity:1;vector-effect:none;fill:#e6e6e6;fill-opacity:1;stroke:#999;stroke-width:.2106810361;stroke-linecap:round;stroke-linejoin:round;stroke-miterlimit:4;stroke-dasharray:none;stroke-dashoffset:0;stroke-opacity:1"/><circle cx="-556.3953857421875" cy="1096.652099609375" r="2.041866779327393" style="opacity:1;vector-effect:none;fill:#e6e6e6;fill-opacity:1;stroke:#999;stroke-width:.2106810361;stroke-linecap:round;stroke-linejoin:round;stroke-miterlimit:4;stroke-dasharray:none;stroke-dashoffset:0;stroke-opacity:1"/><circle cx="-556.3953857421875" cy="1096.652099609375" r="1.633493423461914" style="opacity:1;vector-effect:none;fill:#e6e6e6;fill-opacity:1;stroke:#999;stroke-width:.2106810361;stroke-linecap:round;stroke-linejoin:round;stroke-miterlimit:4;stroke-dasharray:none;stroke-dashoffset:0;stroke-opacity:1"/><circle cx="-556.3953857421875" cy="1110.585693359375" r="1.01339864730835" style="opacity:1;vector-effect:none;fill:#e6e6e6;fill-opacity:1;stroke:#999;stroke-width:.2106810361;stroke-linecap:round;stroke-linejoin:round;stroke-miterlimit:4;stroke-dasharray:none;stroke-dashoffset:0;stroke-opacity:1"/><path d="m-556.395 1023.9 2.002 6.161h6.478l-5.241 3.808 2.002 6.161-5.241-3.807-5.241 3.807 2.001-6.16-5.24-3.809h6.478z" style="opacity:1;vector-effect:none;fill:#e6e6e6;fill-opacity:1;stroke:#999;stroke-width:.2106810361;stroke-linecap:round;stroke-linejoin:round;stroke-miterlimit:4;stroke-dasharray:none;stroke-dashoffset:0;stroke-opacity:1"/><path d="M-556.395 1094.61v-70.71M-564.876 1030.061l11.72 3.808M-547.915 1030.061l-11.72 3.808M-561.636 1040.03l7.243-9.969M-558.397 1030.061l7.243 9.97" style="opacity:1;fill:#e6e6e6;fill-opacity:1;stroke:#999;stroke-width:.2106810361;stroke-linecap:butt;stroke-linejoin:miter;stroke-miterlimit:4;stroke-dasharray:none;stroke-opacity:1"/></g><g style="fill:#e6e6e6;fill-opacity:1;stroke:#999;stroke-width:.2106810361;stroke-miterlimit:4;stroke-dasharray:none;stroke-opacity:1" transform="matrix(1.21304 -.32504 .32503 1.21307 356.247 -1418.86)"><path d="M-557.338 1096.569h1.885v13.892h-1.885z" style="opacity:1;vector-effect:none;fill:#e6e6e6;fill-opacity:1;stroke:#999;stroke-width:.2106810361;stroke-linecap:round;stroke-linejoin:round;stroke-miterlimit:4;stroke-dasharray:none;stroke-dashoffset:0;stroke-opacity:1"/><path d="m-558.213 1035.158.875 59.683.943 1.811.942-1.811.875-59.683M-557.338 1096.107l1.885 1.089M-557.338 1110.042l1.885 1.088M-557.338 1108.184l1.885 1.088M-557.338 1107.255l1.885 1.088M-557.338 1106.326l1.885 1.088M-557.338 1105.397l1.885 1.088M-557.338 1104.468l1.885 1.088M-557.338 1102.61l1.885 1.088M-557.338 1101.681l1.885 1.088M-557.338 1100.752l1.885 1.088M-557.338 1099.823l1.885 1.088M-557.338 1098.894l1.885 1.089M-557.338 1097.965l1.885 1.089M-557.338 1097.036l1.885 1.089M-557.338 1103.539l1.885 1.088" style="opacity:1;fill:#e6e6e6;fill-opacity:1;stroke:#999;stroke-width:.2106810361;stroke-linecap:butt;stroke-linejoin:miter;stroke-miterlimit:4;stroke-dasharray:none;stroke-opacity:1"/><circle cx="-556.3953857421875" cy="1110.585693359375" r="1.422135472297668" style="opacity:1;vector-effect:none;fill:#e6e6e6;fill-opacity:1;stroke:#999;stroke-width:.2106810361;stroke-linecap:round;stroke-linejoin:round;stroke-miterlimit:4;stroke-dasharray:none;stroke-dashoffset:0;stroke-opacity:1"/><circle cx="-556.3953857421875" cy="1096.652099609375" r="2.041866779327393" style="opacity:1;vector-effect:none;fill:#e6e6e6;fill-opacity:1;stroke:#999;stroke-width:.2106810361;stroke-linecap:round;stroke-linejoin:round;stroke-miterlimit:4;stroke-dasharray:none;stroke-dashoffset:0;stroke-opacity:1"/><circle cx="-556.3953857421875" cy="1096.652099609375" r="1.633493423461914" style="opacity:1;vector-effect:none;fill:#e6e6e6;fill-opacity:1;stroke:#999;stroke-width:.2106810361;stroke-linecap:round;stroke-linejoin:round;stroke-miterlimit:4;stroke-dasharray:none;stroke-dashoffset:0;stroke-opacity:1"/><circle cx="-556.3953857421875" cy="1110.585693359375" r="1.013391733169556" style="opacity:1;vector-effect:none;fill:#e6e6e6;fill-opacity:1;stroke:#999;stroke-width:.2106810361;stroke-linecap:round;stroke-linejoin:round;stroke-miterlimit:4;stroke-dasharray:none;stroke-dashoffset:0;stroke-opacity:1"/><path d="m-556.395 1023.9 2.002 6.161h6.478l-5.241 3.808 2.002 6.161-5.241-3.807-5.241 3.807 2.001-6.16-5.24-3.809h6.478z" style="opacity:1;vector-effect:none;fill:#e6e6e6;fill-opacity:1;stroke:#999;stroke-width:.2106810361;stroke-linecap:round;stroke-linejoin:round;stroke-miterlimit:4;stroke-dasharray:none;stroke-dashoffset:0;stroke-opacity:1"/><path d="M-556.395 1094.61v-70.71M-564.876 1030.061l11.72 3.808M-547.915 1030.061l-11.72 3.808M-561.636 1040.03l7.243-9.969M-558.397 1030.061l7.243 9.97" style="opacity:1;fill:#e6e6e6;fill-opacity:1;stroke:#999;stroke-width:.2106810361;stroke-linecap:butt;stroke-linejoin:miter;stroke-miterlimit:4;stroke-dasharray:none;stroke-opacity:1"/></g><g style="fill:#e6e6e6;fill-opacity:1;stroke:#999;stroke-width:.2106810361;stroke-miterlimit:4;stroke-dasharray:none;stroke-opacity:1" transform="matrix(1.25106 .10946 -.10945 1.25108 867.06 -1219.95)"><path d="M-557.338 1096.569h1.885v13.892h-1.885z" style="opacity:1;vector-effect:none;fill:#e6e6e6;fill-opacity:1;stroke:#999;stroke-width:.2106810361;stroke-linecap:round;stroke-linejoin:round;stroke-miterlimit:4;stroke-dasharray:none;stroke-dashoffset:0;stroke-opacity:1"/><path d="m-558.213 1035.158.875 59.683.943 1.811.942-1.811.875-59.683M-557.338 1096.107l1.885 1.089M-557.338 1110.042l1.885 1.088M-557.338 1108.184l1.885 1.088M-557.338 1107.255l1.885 1.088M-557.338 1106.326l1.885 1.088M-557.338 1105.397l1.885 1.088M-557.338 1104.468l1.885 1.088M-557.338 1102.61l1.885 1.088M-557.338 1101.681l1.885 1.088M-557.338 1100.752l1.885 1.088M-557.338 1099.823l1.885 1.088M-557.338 1098.894l1.885 1.089M-557.338 1097.965l1.885 1.089M-557.338 1097.036l1.885 1.089M-557.338 1103.539l1.885 1.088" style="opacity:1;fill:#e6e6e6;fill-opacity:1;stroke:#999;stroke-width:.2106810361;stroke-linecap:butt;stroke-linejoin:miter;stroke-miterlimit:4;stroke-dasharray:none;stroke-opacity:1"/><circle cx="-556.3953857421875" cy="1110.585693359375" r="1.422135472297668" style="opacity:1;vector-effect:none;fill:#e6e6e6;fill-opacity:1;stroke:#999;stroke-width:.2106810361;stroke-linecap:round;stroke-linejoin:round;stroke-miterlimit:4;stroke-dasharray:none;stroke-dashoffset:0;stroke-opacity:1"/><circle cx="-556.3953857421875" cy="1096.652099609375" r="2.041866779327393" style="opacity:1;vector-effect:none;fill:#e6e6e6;fill-opacity:1;stroke:#999;stroke-width:.2106810361;stroke-linecap:round;stroke-linejoin:round;stroke-miterlimit:4;stroke-dasharray:none;stroke-dashoffset:0;stroke-opacity:1"/><circle cx="-556.3953857421875" cy="1096.652099609375" r="1.633493423461914" style="opacity:1;vector-effect:none;fill:#e6e6e6;fill-opacity:1;stroke:#999;stroke-width:.2106810361;stroke-linecap:round;stroke-linejoin:round;stroke-miterlimit:4;stroke-dasharray:none;stroke-dashoffset:0;stroke-opacity:1"/><circle cx="-556.3953857421875" cy="1110.585693359375" r="1.01339864730835" style="opacity:1;vector-effect:none;fill:#e6e6e6;fill-opacity:1;stroke:#999;stroke-width:.2106810361;stroke-linecap:round;stroke-linejoin:round;stroke-miterlimit:4;stroke-dasharray:none;stroke-dashoffset:0;stroke-opacity:1"/><path d="m-556.395 1023.9 2.002 6.161h6.478l-5.241 3.808 2.002 6.161-5.241-3.807-5.241 3.807 2.001-6.16-5.24-3.809h6.478z" style="opacity:1;vector-effect:none;fill:#e6e6e6;fill-opacity:1;stroke:#999;stroke-width:.2106810361;stroke-linecap:round;stroke-linejoin:round;stroke-miterlimit:4;stroke-dasharray:none;stroke-dashoffset:0;stroke-opacity:1"/><path d="M-556.395 1094.61v-70.71M-564.876 1030.061l11.72 3.808M-547.915 1030.061l-11.72 3.808M-561.636 1040.03l7.243-9.969M-558.397 1030.061l7.243 9.97" style="opacity:1;fill:#e6e6e6;fill-opacity:1;stroke:#999;stroke-width:.2106810361;stroke-linecap:butt;stroke-linejoin:miter;stroke-miterlimit:4;stroke-dasharray:none;stroke-opacity:1"/></g><g style="fill:#e6e6e6;fill-opacity:1;stroke:#999;stroke-width:.2106810361;stroke-miterlimit:4;stroke-dasharray:none;stroke-opacity:1" transform="matrix(1.21304 .32504 -.32503 1.21307 1088.867 -1057.158)"><path d="M-557.338 1096.569h1.885v13.892h-1.885z" style="opacity:1;vector-effect:none;fill:#e6e6e6;fill-opacity:1;stroke:#999;stroke-width:.2106810361;stroke-linecap:round;stroke-linejoin:round;stroke-miterlimit:4;stroke-dasharray:none;stroke-dashoffset:0;stroke-opacity:1"/><path d="m-558.213 1035.158.875 59.683.943 1.811.942-1.811.875-59.683M-557.338 1096.107l1.885 1.089M-557.338 1110.042l1.885 1.088M-557.338 1108.184l1.885 1.088M-557.338 1107.255l1.885 1.088M-557.338 1106.326l1.885 1.088M-557.338 1105.397l1.885 1.088M-557.338 1104.468l1.885 1.088M-557.338 1102.61l1.885 1.088M-557.338 1101.681l1.885 1.088M-557.338 1100.752l1.885 1.088M-557.338 1099.823l1.885 1.088M-557.338 1098.894l1.885 1.089M-557.338 1097.965l1.885 1.089M-557.338 1097.036l1.885 1.089M-557.338 1103.539l1.885 1.088" style="opacity:1;fill:#e6e6e6;fill-opacity:1;stroke:#999;stroke-width:.2106810361;stroke-linecap:butt;stroke-linejoin:miter;stroke-miterlimit:4;stroke-dasharray:none;stroke-opacity:1"/><circle cx="-556.3953857421875" cy="1110.585693359375" r="1.422135472297668" style="opacity:1;vector-effect:none;fill:#e6e6e6;fill-opacity:1;stroke:#999;stroke-width:.2106810361;stroke-linecap:round;stroke-linejoin:round;stroke-miterlimit:4;stroke-dasharray:none;stroke-dashoffset:0;stroke-opacity:1"/><circle cx="-556.3953857421875" cy="1096.652099609375" r="2.041866779327393" style="opacity:1;vector-effect:none;fill:#e6e6e6;fill-opacity:1;stroke:#999;stroke-width:.2106810361;stroke-linecap:round;stroke-linejoin:round;stroke-miterlimit:4;stroke-dasharray:none;stroke-dashoffset:0;stroke-opacity:1"/><circle cx="-556.3953857421875" cy="1096.652099609375" r="1.633493423461914" style="opacity:1;vector-effect:none;fill:#e6e6e6;fill-opacity:1;stroke:#999;stroke-width:.2106810361;stroke-linecap:round;stroke-linejoin:round;stroke-miterlimit:4;stroke-dasharray:none;stroke-dashoffset:0;stroke-opacity:1"/><circle cx="-556.3953857421875" cy="1110.585693359375" r="1.013391733169556" style="opacity:1;vector-effect:none;fill:#e6e6e6;fill-opacity:1;stroke:#999;stroke-width:.2106810361;stroke-linecap:round;stroke-linejoin:round;stroke-miterlimit:4;stroke-dasharray:none;stroke-dashoffset:0;stroke-opacity:1"/><path d="m-556.395 1023.9 2.002 6.161h6.478l-5.241 3.808 2.002 6.161-5.241-3.807-5.241 3.807 2.001-6.16-5.24-3.809h6.478z" style="opacity:1;vector-effect:none;fill:#e6e6e6;fill-opacity:1;stroke:#999;stroke-width:.2106810361;stroke-linecap:round;stroke-linejoin:round;stroke-miterlimit:4;stroke-dasharray:none;stroke-dashoffset:0;stroke-opacity:1"/><path d="M-556.395 1094.61v-70.71M-564.876 1030.061l11.72 3.808M-547.915 1030.061l-11.72 3.808M-561.636 1040.03l7.243-9.969M-558.397 1030.061l7.243 9.97" style="opacity:1;fill:#e6e6e6;fill-opacity:1;stroke:#999;stroke-width:.2106810361;stroke-linecap:butt;stroke-linejoin:miter;stroke-miterlimit:4;stroke-dasharray:none;stroke-opacity:1"/></g></g><path d="M-56.696 129.064c5.672 0 11.612 1.356 17.79 1.467l3.532 3.532v37.264a6.11 6.11 0 0 1-6.113 6.112H-52.46a5.9 5.9 0 0 0-4.17 1.73c-.029.028-.039.069-.066.098-.028-.03-.038-.07-.067-.098a5.9 5.9 0 0 0-4.17-1.73h-10.97a6.115 6.115 0 0 1-6.116-6.112v-37.264l3.532-3.532c6.178-.111 12.118-1.467 17.79-1.467z" style="color:#000;font-style:normal;font-variant:normal;font-weight:400;font-stretch:normal;font-size:medium;font-family:sans-serif;font-variant-ligatures:normal;font-variant-position:normal;font-variant-caps:normal;font-variant-numeric:normal;font-variant-alternates:normal;font-feature-settings:normal;text-indent:0;text-decoration:none;text-decoration-line:none;text-decoration-style:solid;text-decoration-color:#000;letter-spacing:normal;word-spacing:normal;text-transform:none;writing-mode:lr-tb;direction:ltr;text-orientation:mixed;dominant-baseline:auto;baseline-shift:baseline;text-anchor:start;clip-rule:nonzero;display:inline;overflow:visible;visibility:visible;opacity:1;color-interpolation:sRGB;vector-effect:none;fill:#e6e6e6;fill-opacity:1;fill-rule:nonzero;stroke:#999;stroke-width:.2645833194;stroke-linecap:butt;stroke-linejoin:round;stroke-miterlimit:4;stroke-dasharray:none;stroke-dashoffset:0;stroke-opacity:1;color-rendering:auto;image-rendering:auto;shape-rendering:auto;text-rendering:auto;enable-background:accumulate" transform="translate(104.321 -101.586)"/><path d="M-56.696 127.403c-6.208 0-12.416.512-18.54 1.528l-4.444 4.444v37.952c0 1.028.073 2.077.473 3.023.401.946 1.078 1.748 1.805 2.474.726.727 1.528 1.404 2.475 1.805.946.4 1.994.473 3.022.473h10.972c.562 0 1.136.032 1.658.242.521.21.97.573 1.338.999.718.832 1.16 1.899 1.24 2.995a5.215 5.215 0 0 1 1.241-2.995c.368-.426.817-.79 1.339-1 .521-.209 1.095-.241 1.657-.241h10.972c1.028 0 2.076-.073 3.022-.473.947-.401 1.749-1.078 2.476-1.805.726-.726 1.403-1.528 1.804-2.474.4-.946.473-1.995.473-3.023v-37.952l-4.444-4.444a113.337 113.337 0 0 0-18.54-1.528zm-.588 3.296v19.624l-5.215-19.462a104.34 104.34 0 0 1 5.215-.162zm1.175 0c1.74.01 3.478.065 5.215.162l-5.215 19.462zm-7.587.235 5.277 19.692-11.059-19.156c1.923-.23 3.851-.406 5.782-.536zm13.999 0c1.931.13 3.86.306 5.782.536l-11.06 19.157zm-21.044.7 11.305 19.58L-76.15 134.5l2.444-2.445c.987-.154 1.976-.292 2.966-.42zm28.089 0c.99.128 1.98.266 2.966.42l2.444 2.445-16.714 16.715zm-33.738 4.288 16.123 16.123-16.123-9.308zm39.387 0v6.815l-16.122 9.307zm0 8.17v4.807l-15.535 4.164zm-39.387.002 15.534 8.968-15.534-4.163zm0 6.021 17.423 4.67-17.423 4.669zm39.387.001v9.338l-17.423-4.67zm-15.537 6.39 15.537 4.164v4.807zm-8.314.001-15.536 8.97v-4.807zm.588 1.017-15.783 15.784a2.178 2.178 0 0 1-.128-.242c-.115-.273-.213-.865-.213-1.74v-4.493zm7.14 0 16.123 9.31v4.493c0 .874-.095 1.466-.21 1.74-.031.072-.077.155-.129.243zm-6.31.832-10.08 17.457h-2.388c-.873 0-1.468-.097-1.742-.213-.336-.143-.836-.509-1.43-1.102-.09-.09-.164-.173-.244-.258zm5.48 0 15.884 15.885c-.079.085-.153.168-.243.257-.593.593-1.096.96-1.433 1.102-.273.116-.865.213-1.738.213h-2.391zm-1.019.586 9.74 16.871h-5.219zm-3.444.002-4.52 16.87h-5.22zm1.135.303v17.529a2.734 2.734 0 0 0-.767-.484c-1.186-.476-2.193-.479-2.881-.479h-.79zm1.175 0 4.439 16.566h-.79c-.69 0-1.697.003-2.883.479a2.73 2.73 0 0 0-.766.483z" style="opacity:1;fill:#ccc;stroke:#999;stroke-width:.2645833194;stroke-linecap:butt;stroke-linejoin:round;stroke-miterlimit:4;stroke-dasharray:none;stroke-opacity:1" transform="translate(104.321 -101.586)"/><g style="fill:#fff;stroke:#999;stroke-width:.2106810361;stroke-linejoin:round;stroke-miterlimit:4;stroke-dasharray:none;stroke-opacity:1"><path d="M-344.73 1034.948a193.66 193.66 0 0 0 .819 22.334c.123 1.305.275 2.655.935 3.788.607 1.04 1.626 1.824 2.776 2.177 1.151.354 2.421.282 3.539-.166 1.07-.428 2-1.198 2.622-2.168l1.566-1.108-.254 1.835a6.248 6.248 0 0 1-1.456 2.026 6.025 6.025 0 0 1-2.946 1.497c-1.368.258-2.788.016-4.163.234a6.352 6.352 0 0 0-4.022 2.408 6.352 6.352 0 0 0-4.023-2.408c-1.374-.218-2.795.024-4.162-.234a6.025 6.025 0 0 1-2.947-1.497 6.248 6.248 0 0 1-1.456-2.026l-.253-1.835 1.566 1.108a5.625 5.625 0 0 0 2.622 2.168 5.363 5.363 0 0 0 3.538.166c1.15-.353 2.17-1.137 2.776-2.177.66-1.133.812-2.483.935-3.788.703-7.421.976-14.882.819-22.334z" style="fill:#fff;stroke:#999;stroke-width:.2106810361;stroke-linecap:butt;stroke-linejoin:round;stroke-miterlimit:4;stroke-dasharray:none;stroke-opacity:1" transform="matrix(1.25584 0 0 1.25586 481.283 -1266.313)"/><path d="m-333.147 1060.85-2.813.197 4.596-3.417-.457 5.709zM-357.481 1060.85l2.812.197-4.596-3.417.457 5.709z" style="fill:#fff;stroke:#999;stroke-width:.2106810361;stroke-linecap:butt;stroke-linejoin:round;stroke-miterlimit:4;stroke-dasharray:none;stroke-opacity:1" transform="matrix(1.25584 0 0 1.25586 481.283 -1266.313)"/><path d="M-345.314 1031.103a2.158 2.158 0 0 0-2.158 2.158 2.158 2.158 0 0 0 2.158 2.158 2.158 2.158 0 0 0 2.158-2.158 2.158 2.158 0 0 0-2.158-2.158zm0 .777a1.38 1.38 0 0 1 1.38 1.381 1.38 1.38 0 0 1-1.38 1.38 1.38 1.38 0 0 1-1.381-1.38 1.38 1.38 0 0 1 1.38-1.38z" style="opacity:1;vector-effect:none;fill:#fff;fill-opacity:1;stroke:#999;stroke-width:.2106810361;stroke-linecap:round;stroke-linejoin:round;stroke-miterlimit:4;stroke-dasharray:none;stroke-dashoffset:0;stroke-opacity:1" transform="matrix(1.25584 0 0 1.25586 481.283 -1266.313)"/><g style="fill:#fff;stroke:#999;stroke-width:.2106810361;stroke-linejoin:round;stroke-miterlimit:4;stroke-dasharray:none;stroke-opacity:1"><path d="M-504.656 1035.6c-.41.314-.545.92-.389 1.567.073.3.206.599.388.87.586.88 1.582 1.33 2.258.93.674-.397.76-1.52.104-2.505a2.73 2.73 0 0 0-.723-.74c-.599-.407-1.227-.438-1.638-.123zm.366.486c.179-.132.446-.129.738.017.273.136.543.385.75.696.45.674.471 1.414.09 1.647-.383.234-1.018-.116-1.44-.746a2.15 2.15 0 0 1-.358-.914c-.036-.314.04-.568.22-.7zm2.693 4.294c-.687.375-.817 1.467-.324 2.44.025.048.05.095.078.142.517.892 1.418 1.355 2.086 1.036.667-.319.873-1.323.442-2.311a2.885 2.885 0 0 0-.071-.152c-.52-1.028-1.521-1.532-2.211-1.155zm.29.536c.395-.211 1.018.183 1.378.894.025.05.048.1.07.151.284.669.208 1.308-.163 1.488-.37.18-.916-.152-1.277-.762a2.5 2.5 0 0 1-.078-.143c-.35-.689-.326-1.418.07-1.628zm2.235 4.553c-.714.325-.918 1.408-.488 2.415.43 1.007 1.353 1.609 2.082 1.318.728-.291.981-1.379.531-2.433-.45-1.055-1.41-1.624-2.125-1.3zm.25.555c.41-.182 1.003.252 1.315.984.312.73.216 1.46-.2 1.63-.414.168-.989-.281-1.293-.993-.304-.712-.23-1.438.178-1.62z" style="fill:#fff;stroke:#999;stroke-width:.2106810361;stroke-linecap:butt;stroke-linejoin:round;stroke-miterlimit:4;stroke-dasharray:none;stroke-opacity:1" transform="matrix(1.25584 0 0 1.25586 683.876 -1266.313)"/><path d="M-506.487 1033.429a.306.306 0 0 0-.02.429 29.953 29.953 0 0 1 2.148 2.652.306.306 0 0 0 .525-.05.307.307 0 0 0-.03-.305 30.562 30.562 0 0 0-2.192-2.707.304.304 0 0 0-.431-.02zm3.453 4.5a.306.306 0 0 0-.096.42 47.467 47.467 0 0 1 1.695 2.978.305.305 0 0 0 .54-.284 47.918 47.918 0 0 0-1.719-3.017.304.304 0 0 0-.42-.096zm2.744 4.974a.305.305 0 0 0-.139.407 86.264 86.264 0 0 1 1.453 3.116.305.305 0 0 0 .556-.247 86.885 86.885 0 0 0-1.462-3.137.304.304 0 0 0-.408-.14z" style="fill:#fff;stroke:#999;stroke-width:.2106810361;stroke-linecap:butt;stroke-linejoin:round;stroke-miterlimit:4;stroke-dasharray:none;stroke-opacity:1" transform="matrix(1.25584 0 0 1.25586 683.876 -1266.313)"/></g><path d="M-349.746 1037.614a1.006 1.006 0 0 1 0-2.011h8.863a1.006 1.006 0 0 1 0 2.01z" style="opacity:1;vector-effect:none;fill:#fff;fill-opacity:1;stroke:#999;stroke-width:.2106810361;stroke-linecap:round;stroke-linejoin:round;stroke-miterlimit:4;stroke-dasharray:none;stroke-dashoffset:0;stroke-opacity:1" transform="matrix(1.25584 0 0 1.25586 481.283 -1266.313)"/></g><g style="fill:#fff;fill-opacity:1;stroke:#999;stroke-width:.2106810361;stroke-miterlimit:4;stroke-dasharray:none;stroke-opacity:1"><path d="M-343.391 1054.59c0-.948-.331-1.858-.92-2.53-.59-.67-1.389-1.047-2.222-1.047h-17.97c0 .949.332 1.859.921 2.53.59.67 1.388 1.048 2.221 1.048zM-346.533 1051.013c0-.949-.33-1.86-.92-2.53-.59-.671-1.388-1.048-2.221-1.048h-17.97c0 .949.331 1.859.92 2.53.59.67 1.389 1.048 2.222 1.048zM-348.95 1047.435c0-.949-.33-1.86-.92-2.53-.589-.671-1.388-1.048-2.221-1.048h-18.694c0 .949.33 1.859.92 2.53.59.67 1.388 1.048 2.221 1.048z" style="opacity:1;vector-effect:none;fill:#fff;fill-opacity:1;stroke:#999;stroke-width:.2106810361;stroke-linecap:round;stroke-linejoin:round;stroke-miterlimit:4;stroke-dasharray:none;stroke-dashoffset:0;stroke-opacity:1" transform="matrix(1.25584 0 0 1.25586 481.283 -1266.313)"/><path d="M-347.237 1054.59c0-.948.33-1.858.92-2.53.59-.67 1.388-1.047 2.221-1.047h17.97c0 .949-.332 1.859-.92 2.53-.59.67-1.389 1.048-2.222 1.048zM-344.096 1051.013c0-.949.331-1.86.92-2.53.59-.671 1.389-1.048 2.222-1.048h17.969c0 .949-.331 1.859-.92 2.53-.59.67-1.388 1.048-2.222 1.048zM-341.68 1047.435c0-.949.332-1.86.921-2.53.59-.671 1.388-1.048 2.221-1.048h18.695c0 .949-.331 1.859-.92 2.53-.59.67-1.389 1.048-2.222 1.048z" style="opacity:1;vector-effect:none;fill:#fff;fill-opacity:1;stroke:#999;stroke-width:.2106810361;stroke-linecap:round;stroke-linejoin:round;stroke-miterlimit:4;stroke-dasharray:none;stroke-dashoffset:0;stroke-opacity:1" transform="matrix(1.25584 0 0 1.25586 481.283 -1266.313)"/></g><g style="fill:#fc0;stroke:#d49600;stroke-width:.2106810361;stroke-miterlimit:4;stroke-dasharray:none;stroke-opacity:1"><path d="m-345.377 1035.9 3.32 10.215h10.74l-8.69 6.314 3.32 10.216-8.69-6.314-8.69 6.314 3.32-10.216-8.691-6.314h10.742z" style="opacity:1;vector-effect:none;fill:#fc0;fill-opacity:1;stroke:#d49600;stroke-width:.2106810361;stroke-linecap:round;stroke-linejoin:round;stroke-miterlimit:4;stroke-dasharray:none;stroke-dashoffset:0;stroke-opacity:1" transform="matrix(1.25584 0 0 1.25586 481.362 -1266.313)"/><path d="m-359.438 1046.115 19.432 6.314M-350.748 1052.429l19.432-6.314M-348.696 1046.115l12.01 16.53M-342.058 1046.115l-12.01 16.53M-345.377 1056.33v-20.43" style="opacity:1;fill:#fc0;stroke:#d49600;stroke-width:.2106810361;stroke-linecap:round;stroke-linejoin:round;stroke-miterlimit:4;stroke-dasharray:none;stroke-opacity:1" transform="matrix(1.25584 0 0 1.25586 481.362 -1266.313)"/></g></svg>